<svg width="226" height="260" viewBox="0 0 226 260" fill="none" xmlns="http://www.w3.org/2000/svg">
<path fill-rule="evenodd" clip-rule="evenodd" d="M63.7421 31.6881C74.7685 20.6617 99.5765 9.22661 104.918 8.15767C107.24 7.69334 112.157 6.6886 117.14 5.67036C122.178 4.64077 127.284 3.59739 129.844 3.08489C145.503 -0.0466799 164.322 -1.33285 180.057 1.81411C184.172 2.63725 188.241 3.30589 192.26 3.96647C206.432 6.29527 219.994 8.52384 232.811 17.0684C248.973 27.8441 255.34 41.5086 262.614 57.1227C264.246 60.6258 265.924 64.227 267.768 67.9158C292.793 117.965 310.276 201.927 257.599 241.435C242.621 252.668 225.948 252.935 209.132 253.205C201.112 253.334 193.059 253.463 185.142 254.782C157.588 259.374 121.855 261.172 93.6144 257.326C70.7801 254.214 39.885 231.695 17.3432 205.842C9.514 196.861 5.21242 179.601 2.39558 168.298C2.29137 167.88 2.18919 167.47 2.08894 167.069C-9.79769 119.524 31.5062 63.9222 63.7421 31.6881Z" fill="#E2EFF8"/>
</svg>
