<svg width="217" height="498" viewBox="0 0 217 498" fill="none" xmlns="http://www.w3.org/2000/svg">
<path d="M112.66 28.1525C111.477 41.5774 126.112 62.8521 135.451 67.9198C135.493 68.5046 135.554 69.1315 135.636 69.8022C136.568 77.4425 138.777 104.985 138.898 108.431C139.081 113.604 139.458 118.9 139.88 124.185C137.695 118.856 134.886 113.759 132 108.686C124.448 95.4097 109.245 87.9978 90.5984 89.2924C80.2817 90.0087 64.8069 97.2661 70.217 108.686C72.5523 113.615 78.7227 117.854 83.8662 121.388C84.8551 122.067 85.806 122.72 86.6844 123.347C101.421 133.867 122.665 143.683 141.595 147.782C142.416 166.337 138.031 184.324 135.636 202.654C134.088 212.353 132.558 221.933 130.476 231.415C126.087 211.311 104.603 178.807 87.4961 176.373C79.1543 175.186 70.1059 175.511 65.8737 183.091C62.6 188.954 64.4424 197.416 67.0192 203.118C71.5267 213.093 80.0412 221.713 88.9757 228.807C99.9513 237.522 112.63 242.187 127.303 244.07C126.545 246.72 125.722 249.362 124.822 251.998C120.413 264.918 114.535 277.365 108.563 290.012C106.999 293.324 105.427 296.651 103.875 300.003C103.124 301.625 102.38 303.249 101.633 304.873C98.5093 311.862 95.2281 318.835 91.5394 325.624C93.4229 311.611 88.8481 290.072 75.6102 279.509C63.7503 270.046 45.5393 275.154 45.5393 289.058C45.5393 308.912 69.445 325.24 85.9628 335.358C78.3249 348.746 71.6266 362.222 65.3819 376.187C63.2836 380.879 60.7885 385.971 58.2152 391.221C57.3254 393.035 56.4371 394.85 55.5549 396.666C55.3407 394.688 54.9685 392.622 54.6284 390.735C53.0467 381.958 53.6318 372.546 48.8333 364.476C44.8602 357.794 38.207 351.352 31.5067 346.773C25.9658 342.985 17.5084 340.903 10.7912 343.392C2.06261 346.627 -0.105512 355.541 0.00388355 362.997C0.296914 382.97 32.0491 406.315 48.9761 410.833C46.7359 416.011 44.7968 421.06 43.4595 425.753C37.0347 448.298 29.5 474.79 25.4595 494.632C25.4595 497.112 47.7962 500.195 49 495.733C49.3661 493.187 49.7111 490.795 50.036 488.542C52.8176 469.258 54.1359 460.118 54.75 450.664C55.7391 435.437 61.8805 413.842 67.7087 397.226C81.0095 397.313 94.0775 398.496 107.304 399.883C122.901 401.518 157.303 404.522 160.477 384.292C161.548 377.466 159.297 370.117 154.415 364.772C146.878 356.52 139.515 353.034 127.59 354.336C116.666 355.528 101.34 364.156 92.3166 369.664C89.0086 371.684 85.8771 373.993 82.7438 376.304C79.5943 378.627 76.4429 380.951 73.1086 382.983C73.6779 381.61 74.2206 380.346 74.7289 379.21C81.659 363.712 89.1278 348.885 97.8183 334.141C102.162 326.772 105.802 319.133 109.285 311.583C119.128 311.942 136.875 312.349 146.54 311.113C147.143 311.036 147.779 310.956 148.446 310.873C163.099 309.041 192.122 305.414 187.637 287.325C186.466 282.604 183.037 278.437 178.663 275.622C172.748 271.813 166.417 272.559 159.676 273.352C158.726 273.464 157.768 273.577 156.802 273.678C148.763 274.52 140.554 276.156 133.509 279.847C128.474 282.485 124.025 285.875 119.654 289.346C125.022 277.945 130.347 266.323 134.426 254.368C136.552 248.141 138.273 241.815 139.738 235.447C143.407 236.339 154.226 233.933 163.702 231.825C167.139 231.061 170.4 230.336 173.078 229.822C188.999 226.765 212.926 219.221 213.077 201.682C213.121 196.591 211.921 184.752 204.39 183.641C197.37 182.605 188.954 184.601 182.576 187.021C164.259 193.97 149.171 211.596 142.476 222.094C143.649 215.721 144.67 209.344 145.682 203.017C146.937 195.174 148.179 187.409 149.685 179.825C152.11 167.619 152.202 155.874 151.5 143.937C151.266 139.956 150.77 135.735 150.161 131.463C154.186 133.187 162.03 133.615 165.64 133.812C166.022 133.833 166.357 133.851 166.634 133.868C172.749 134.242 179.589 133.35 185.441 131.756C203.132 126.937 212.63 111.706 216.562 96.18C217.899 90.8979 216.216 81.7006 210.977 78.1386C208.035 76.1384 204.367 76.2053 200.852 76.2695C200.662 76.2729 200.473 76.2764 200.285 76.2795C181.605 76.5886 165.899 96.4132 154.094 111.315C151.985 113.977 150 116.483 148.145 118.691C146.955 111.43 145.874 104.584 145.682 99.1399C145.457 92.7876 143.25 77.2974 141.104 68.0902C145.098 63.6017 147.759 43.2968 147.759 31.7056C147.759 30.874 147.765 30.0477 147.77 29.2274C147.834 19.2765 147.893 10.2073 138.331 3.19799C129.174 -3.51433 125.001 1.29523 119.568 8.81688C115.631 14.2685 113.222 21.7798 112.66 28.1525Z" fill="#192F51"/>
</svg>
