<svg width="260" height="497" viewBox="0 0 260 497" fill="none" xmlns="http://www.w3.org/2000/svg">
<path d="M72.0016 2.16503C61.0236 6.4277 59.9984 26.1382 59.3654 38.3094C59.2543 40.4464 59.1552 42.3513 59.0165 43.8991C54.9369 89.4141 59.284 110.302 57.035 113.267C54.6449 116.418 44.8051 99.3279 9.48435 70.0441C8.35198 69.1052 7.00713 67.8923 5.49815 66.5313C-3.0955 58.7805 -17.0124 46.2286 -27.3218 52.1645C-31.4981 54.5691 -34.1484 56.4728 -36.0036 61.9001C-39.0727 70.8792 -36.7229 80.6263 -30.6723 89.1755C-8.25863 120.844 28.2314 139.851 58.4098 141.866C59.8289 148.198 63.3726 156.289 65.021 162.737C69.7556 181.259 74.5315 199.813 79.2532 218.37C63.1148 207.153 47.2752 199.522 30.3 190.592C10.7167 180.29 -9.34907 170.346 -27.3457 166.104C-39.593 163.218 -57.9873 159.328 -61.4038 167.879C-64.6449 175.99 -59.3497 190.294 -46.26 202.844C-30.069 218.367 -3.27978 233.904 14.4295 241.097C36.8934 250.222 63.144 248.638 82.4039 237.76C85.2066 248.117 93.8145 269.501 96.9946 279.813C103.056 299.47 105.905 311.949 109.592 327.725C99.5533 319.961 71.3501 300.475 47.7003 290.569C46.4663 290.052 44.9785 289.339 43.3092 288.539C33.8023 283.983 18.4065 276.604 10.4494 286.561C7.22599 290.594 5.26586 293.537 4.82058 299.742C4.08393 310.007 8.40972 318.976 15.8032 325.314C45.2254 350.538 85.9959 354.746 114.096 342.185C118.216 364.107 122.733 382.362 137.318 416.197C124.897 407.219 110.113 401.607 97.2348 396.463C91.8855 394.326 86.5351 392.189 81.1119 389.671C58.3891 379.122 35.1322 369.023 14.4694 365.385C0.407777 362.909 -20.6929 359.706 -24.2234 369.855C-27.5727 379.484 -20.9459 395.682 -5.5205 409.295C14.5113 426.974 43.1593 441.702 65.1635 449.316C83.6927 455.728 108.176 455.456 124.786 448.612C126.164 448.044 127.557 447.497 128.946 446.951C134.221 444.877 140.187 443.146 144.526 438.948C146.817 446.093 163.291 489.105 167.262 493.938C169.334 496.46 171.608 497.078 175.145 494.62C177.041 493.302 176.748 492.375 171.637 475.054C168.134 464.422 163.847 451.312 160.512 440.996C166.204 441.094 171.624 438.767 176.822 436.976C178.232 436.49 179.645 436.003 181.06 435.542C198.442 429.87 217.03 414.535 227.706 397.074C234.147 386.542 240.252 373.008 245.134 360.005C245.838 358.132 246.566 356.229 247.303 354.3C251.499 343.332 256.008 331.544 258.086 319.801C261.74 299.155 256.996 282.262 248.526 276.99C239.599 271.433 225.196 287.723 215.806 298.843C202.009 315.184 190.141 338.23 178.962 361.276C176.294 366.776 173.45 371.933 170.607 377.09C164.797 387.627 159.666 398.648 154.698 409.967C153.817 411.975 153.075 413.889 152.463 415.71C133.183 370.048 130.466 361.559 126.721 341.75C127.716 342.253 130.854 340.388 132.238 340.003C161.828 331.761 191.184 302.2 198.902 263.51C200.84 253.799 198.788 244.008 191.997 236.464C187.892 231.904 184.58 230.867 179.619 229.792C167.375 227.138 159.817 242.814 155.15 252.494C154.33 254.194 153.6 255.709 152.949 256.907C139.015 282.556 127.881 321.198 126.298 329.268C126.16 329.975 126.335 333.037 124.521 334.803C123.198 330.629 118.737 317.133 111.875 294.882C110.275 289.695 99.0102 245.383 100.049 245.115C121.534 239.583 142.039 221.847 152.802 199.597C161.73 181.141 171.518 151.767 173.814 128.275C175.63 109.693 170.536 95.3068 163 91.5574C155.057 87.6051 143.822 103.487 136.529 114.282C125.812 130.145 117.157 151.713 109.088 173.208C107.162 178.338 105.065 183.185 102.969 188.03C101.006 192.566 99.0443 197.102 97.2234 201.867C95.7372 205.757 94.3834 209.891 93.0368 214.004C92.7059 215.015 92.3753 216.024 92.0435 217.028C89.4655 207 86.9651 196.924 84.4446 186.767C82.1036 177.333 79.7451 167.829 77.291 158.229C75.5195 151.299 73.9935 144.476 72.4089 137.391C72.2186 136.52 72.0197 135.651 71.8248 134.781C92.1988 109.499 105.357 65.5761 99.1012 24.5877C97.4729 13.9198 92.5295 5.41528 84.4238 1.78999C79.5243 -0.401294 76.4487 0.438239 72.0016 2.16503Z" fill="#163D7A"/>
</svg>
