<svg width="290" height="365" viewBox="0 0 290 365" fill="none" xmlns="http://www.w3.org/2000/svg">
<path fill-rule="evenodd" clip-rule="evenodd" d="M123.39 307.436C108.549 312.219 81.2557 311.082 76.0148 309.597C73.7361 308.951 68.9023 307.603 64.0035 306.236C59.0502 304.855 54.0304 303.454 51.5185 302.743C36.1542 298.388 18.8203 290.95 6.25249 280.973C2.96587 278.364 -0.350275 275.913 -3.62643 273.492C-15.1762 264.956 -26.2289 256.787 -33.7387 243.337C-43.2074 226.376 -42.6408 211.312 -41.9934 194.099C-41.8481 190.237 -41.6988 186.267 -41.6578 182.143C-41.1026 126.189 -18.3676 43.4943 46.531 32.3595C64.9835 29.1941 79.9428 36.56 95.0315 43.9896C102.228 47.5329 109.453 51.0907 117.101 53.5275C143.716 62.0071 176.336 76.7047 199.714 93.0077C218.617 106.191 235.841 140.322 244.11 173.611C246.982 185.174 242.938 202.496 240.29 213.839C240.192 214.259 240.096 214.671 240.002 215.073C228.897 262.807 166.78 293.451 123.39 307.436Z" fill="#163D7A"/>
<path d="M160.867 155.81C159.354 156.208 152.346 156.845 145.258 157.243C125.668 158.279 127.26 159.473 113.722 173.171C109.024 177.949 109.9 181.692 107.59 190.85C102.016 212.989 123.119 212.909 134.428 198.654C143.825 186.788 149.797 182.966 165.486 178.905C179.979 175.162 183.961 172.135 183.961 164.968C183.961 157.164 172.972 152.704 160.867 155.81ZM163.575 173.649C147.249 177.551 136.259 183.046 129.65 191.009C119.217 203.512 115.474 206.14 114.917 201.123C114.598 198.575 119.138 184.001 120.89 181.692L126.783 173.967C134.985 163.136 134.428 163.535 148.444 162.818C155.133 162.499 162.221 161.863 164.132 161.465C176.555 158.837 175.44 170.782 163.575 173.649Z" fill="#0097B5"/>
<path d="M270.924 165.924C266.146 159.713 258.899 149.519 254.838 143.387C230.549 106.914 212.87 100.702 168.034 113.046C150.116 117.983 147.887 117.824 119.456 108.188C82.9832 95.8446 41.1742 121.009 50.5713 155.014C56.4644 176.436 56.5439 176.118 50.6508 196.744C42.4483 225.731 43.0058 238.075 53.4381 257.665C84.8147 316.516 159.593 314.286 180.059 254.001C186.43 235.287 188.819 230.509 194.792 224.616C205.304 214.264 209.047 214.025 221.868 223.422C240.025 236.721 256.351 240.145 272.039 233.934C296.169 224.377 295.85 198.416 270.924 165.924ZM231.823 219.201C204.348 199.531 181.254 211.078 168.114 251.135C160.071 275.663 155.771 281.317 138.967 289.758C110.219 304.172 73.9841 282.751 60.3664 243.331C55.3493 228.678 56.3847 216.095 64.9058 189.815C69.0469 177.073 69.2061 174.047 66.4188 163.615C62.1981 147.767 61.9592 145.936 63.2333 139.804C68.8079 113.205 91.2653 106.755 120.651 116.311C146.692 124.832 153.063 124.912 179.582 117.585C209.047 109.383 221.152 114.32 239.866 142.193C248.308 154.775 253.006 161.306 261.129 171.658C293.859 213.467 272.358 248.268 231.823 219.201Z" fill="#0097B5"/>
<path d="M218.603 154.536C198.296 138.768 202.437 129.53 168.034 131.919C151.788 133.034 158.956 136.379 127.42 139.086C104.485 141.077 85.2126 145.696 85.2126 168.95C85.2126 175.56 84.8144 178.984 83.5402 183.205C73.9839 214.661 87.9201 250.019 109.74 249.94C123.916 249.86 132.357 243.091 144.143 222.227C151.311 209.564 161.265 199.849 170.662 196.982C172.095 196.584 180.935 195.946 190.332 195.628C217.488 194.672 225.77 190.372 229.752 175.161C231.902 167.038 229.911 163.296 218.603 154.536ZM185.952 192.363C158.876 192.363 149.957 198.176 136.02 224.536C111.333 271.123 75.9748 237.995 94.3708 185.355C97.0784 177.631 97.2376 176.834 96.6801 170.543C95.3263 154.058 105.759 146.971 135.065 144.183C151.629 142.591 155.611 141.157 165.645 138.211C170.901 136.618 179.98 136.22 184.758 137.175C189.217 138.051 198.296 149.997 211.117 159.951C233.017 176.914 221.072 192.283 185.952 192.363Z" fill="#0097B5"/>
</svg>
